<?xml version="1.0" encoding="utf-8"?>
<!-- Generator: Adobe Illustrator 16.0.0, SVG Export Plug-In . SVG Version: 6.00 Build 0)  -->
<!DOCTYPE svg PUBLIC "-//W3C//DTD SVG 1.1//EN" "http://www.w3.org/Graphics/SVG/1.1/DTD/svg11.dtd">
<svg version="1.1" id="Layer_1" xmlns="http://www.w3.org/2000/svg" xmlns:xlink="http://www.w3.org/1999/xlink" x="0px" y="0px"
	 width="250px" height="250px" viewBox="0 0 250 250" enable-background="new 0 0 250 250" xml:space="preserve">
<g>
	<path fill="none" stroke="#000000" stroke-width="4" stroke-miterlimit="10" d="M84.479,149.409
		c-0.063,1.063-0.096,2.127-0.096,3.204c-0.009,14.563,5.709,27.791,15.025,37.558c0,0,10.904,16.036,39.329,16.852
		c10.92,0.005,21.587-3.276,30.617-9.417l33.635,33.635c3.972,3.995,10.433,4.013,14.425,0.04
		c3.997-3.974,4.014-10.435,0.041-14.427c-0.013-0.016-0.026-0.026-0.041-0.041l-33.633-33.636
		c15.51-22.783,11.5-53.567-9.327-71.618l0.747-0.748c4.871,2.331,10.715,0.458,13.322-4.27l10.92,1.821
		c0.183,0.031,0.369,0.046,0.557,0.046c0.979,0,1.913-0.425,2.56-1.163l17.845-20.392v4.551c0,1.878,1.521,3.4,3.398,3.4
		c1.879,0,3.401-1.521,3.401-3.4V77.805c0-1.878-1.522-3.4-3.401-3.4h-13.602c-1.879,0-3.4,1.522-3.4,3.4c0,1.878,1.521,3.4,3.4,3.4
		h6.107l-17.62,20.137l-9.049-1.507c-0.398-2.25-1.542-4.301-3.243-5.823V61.627 M186.397,38.654v-18.66
		c0-1.877-1.521-3.399-3.4-3.399h-27.203c-1.879,0-3.399,1.521-3.399,3.399v79.935c-2.238-0.578-4.509-1.011-6.803-1.297V36.998
		c0-1.878-1.521-3.4-3.399-3.4h-27.204c-1.878,0-3.401,1.521-3.401,3.4v68.514c-2.38,1.382-4.654,2.942-6.8,4.665V64.202
		c0-1.878-1.522-3.4-3.401-3.4H74.181c-1.877,0-3.4,1.522-3.4,3.4v72.425c-2.511-0.002-4.935,0.926-6.801,2.605V88.006
		c0-1.878-1.522-3.4-3.4-3.4H33.374c-1.877,0-3.399,1.522-3.399,3.4v78.502l-6.084,7.822c-1.165,1.475-0.911,3.613,0.564,4.775
		s3.613,0.91,4.776-0.564c0.009-0.012,0.019-0.023,0.027-0.036l22.091-28.402 M174.824,152.616
		c0,19.899-16.134,36.034-36.033,36.034c-19.901,0-36.034-16.135-36.034-36.034c0-19.902,16.133-36.035,36.034-36.035
		C158.682,116.605,174.803,132.725,174.824,152.616z"/>
</g>
</svg>
