<?xml version="1.0" encoding="utf-8"?>
<!-- Generator: Adobe Illustrator 16.0.0, SVG Export Plug-In . SVG Version: 6.00 Build 0)  -->
<!DOCTYPE svg PUBLIC "-//W3C//DTD SVG 1.1//EN" "http://www.w3.org/Graphics/SVG/1.1/DTD/svg11.dtd">
<svg version="1.1" id="Layer_1" xmlns="http://www.w3.org/2000/svg" xmlns:xlink="http://www.w3.org/1999/xlink" x="0px" y="0px"
	 width="250px" height="250px" viewBox="0 0 250 250" enable-background="new 0 0 250 250" xml:space="preserve">
<g>
	<g>
		<g>
			<path fill="none" stroke="#000000" stroke-width="4" stroke-miterlimit="10" d="M147.318,89.851L133.612,71.34
				c-2.158-2.917-5.374-4.589-8.826-4.589c-3.45,0-6.667,1.672-8.824,4.589l-37.77,51.011c-3.541,4.785-3.274,11.744,0.622,16.19
				l14.257,16.271c-3.56,1.659-6.034,5.271-6.034,9.45v24.8c0,4.667,3.083,8.627,7.32,9.952l-0.083,25.187
				c0.06,1.728,1.479,3.087,3.191,3.087c0.038,0,0.075,0,0.113-0.002c1.764-0.061,3.145-1.54,3.083-3.306l0.107-24.492h48.463
				l0.106,24.492c-0.06,1.766,1.32,3.245,3.084,3.306c0.038,0.002,0.075,0.002,0.113,0.002c1.713,0,3.132-1.359,3.19-3.087
				l-0.077-25.333c4.011-1.451,6.889-5.299,6.889-9.806v-24.8c0-4.179-2.474-7.791-6.036-9.45l14.259-16.271
				c3.897-4.446,4.163-11.405,0.619-16.19l-15.866-21.435 M114.835,92.912v14.937c-3.995,3.069-6.329,7.764-6.329,12.887
				c0,8.979,7.304,16.28,16.28,16.28c8.978,0,16.28-7.302,16.28-16.28c0-4.893-2.18-9.463-5.903-12.542V92.991"/>
			<path fill="none" stroke="#000000" stroke-width="4" stroke-miterlimit="10" d="M63.854,69.923
				c-5.524,9.734-8.63,20.727-9.06,31.944c-5.513,1.403-9.604,6.411-9.604,12.354c0,7.027,5.718,12.745,12.745,12.745
				s12.747-5.718,12.747-12.745c0-5.902-4.034-10.881-9.488-12.323l0,0"/>
			<path fill="none" stroke="#000000" stroke-width="4" stroke-miterlimit="10" d="M188.811,101.898
				c-5.455,1.442-9.492,6.419-9.492,12.323c0,7.029,5.718,12.745,12.746,12.745c7.027,0,12.745-5.716,12.745-12.745
				c0-5.944-4.089-10.95-9.606-12.354c-1.02-26.879-17.349-50.346-40.908-61.192h55.475v1.939c0,3.731,3.036,6.767,6.768,6.767
				h10.269c3.732,0,6.769-3.036,6.769-6.767V29.478c0-3.731-3.036-6.765-6.769-6.765l0,0h-10.268c-3.731,0-6.767,3.034-6.767,6.765
				v1.939H136.9v-1.939c0-3.731-3.034-6.765-6.764-6.765h-10.271c-3.731,0-6.767,3.034-6.767,6.765v1.939H40.228v-1.939
				c0-3.731-3.035-6.765-6.767-6.765H23.192c-3.73,0-6.766,3.034-6.766,6.765v13.136c0,3.729,3.036,6.765,6.766,6.765h10.27
				c3.732,0,6.767-3.035,6.767-6.765v-1.939h55.476c-8.872,4.073-16.88,9.993-23.458,17.464 M113.099,41.788v0.826
				c0,3.731,3.035,6.767,6.767,6.767h10.271c3.729,0,6.764-3.036,6.764-6.767v-0.826"/>
		</g>
	</g>
	<path fill="none" stroke="#000000" stroke-width="4" stroke-miterlimit="10" d="M113.099,172.328v0.827
		c0,3.729,3.035,6.766,6.767,6.766h10.271c3.729,0,6.764-3.036,6.764-6.766v-0.827"/>
</g>
</svg>
