<?xml version="1.0" encoding="utf-8"?>
<!-- Generator: Adobe Illustrator 27.0.0, SVG Export Plug-In . SVG Version: 6.00 Build 0)  -->
<svg version="1.1" id="Layer_1" xmlns="http://www.w3.org/2000/svg" xmlns:xlink="http://www.w3.org/1999/xlink" x="0px" y="0px"
	 viewBox="0 0 350.7 265" style="enable-background:new 0 0 350.7 265;" xml:space="preserve">
<style type="text/css">
	.st0{display:none;}
	.st1{display:inline;}
	.st2{fill:none;stroke:#9B9B9B;stroke-width:4;stroke-miterlimit:10;}
	.st3{fill:none;stroke:#9B9B9B;stroke-width:2;stroke-miterlimit:10;}
	.st4{fill:none;stroke:#000000;stroke-width:4;stroke-miterlimit:10;}
</style>
<g id="Layer_1_00000059300755634431971420000006407087433052161678_" class="st0">
	<g class="st1">
		<g>
			<path class="st2" d="M309.4,116.2v-93c0-8.3-6.7-15-15-15H27.7c-8.3,0-15,6.7-15,15v181.3c0,8.3,6.7,15,15,15h226.7"/>
			<rect x="128.7" y="219.8" class="st2" width="64.7" height="36"/>
		</g>
		<path class="st2" d="M90.7,256.2h140.7H90.7z"/>
		<path class="st2" d="M337.8,148.1l0.2,7.7l-0.2,88.1c0,7.1-5.8,12.9-12.9,12.9h-40.2c-7.1,0-12.9-5.8-12.9-12.9l-0.2-88.2l0.2-7.7
			c0-7.1,5.8-12.9,12.9-12.9h40.2C332,135.2,337.8,141,337.8,148.1z"/>
		<path class="st2" d="M271.6,155.8h66.3H271.6z"/>
		<path class="st2" d="M272.5,234.8h64.7H272.5z"/>
		<circle class="st3" cx="304.8" cy="245.8" r="4.7"/>
	</g>
</g>
<g id="Layer_2_00000175291378637188255000000013028612268027075457_">
	<g>
		<g>
			<g>
				<polyline class="st4" points="98.4,226 9,200.2 9.6,57.9 177.3,13.8 343.6,59.3 343.6,197.6 181.9,251.2 125.2,234.9 				"/>
				<line class="st4" x1="176.3" y1="13.8" x2="176.3" y2="119.9"/>
				<polygon class="st4" points="281.1,167.3 282.5,62.9 328.1,78 328.6,180.4 				"/>
				<polygon class="st4" points="23.7,74.9 155.9,41.2 156.9,135.8 24.7,181.9 				"/>
				<path class="st4" d="M224.7,236.8l-21-11.6l-1-23.5c3.7-0.6,6.5-3.7,6.5-7.7v-24.1h-4.4v-1.5c0-1.5-0.8-2.9-2.2-3.6
					c1.4-1.2,2.2-2.9,2.2-4.8v-2.2c0-3.7-3-6.6-6.6-6.6c-3.7,0-6.6,3-6.6,6.6v2.2c0,2.9,1.8,5.4,4.4,6.2l-5.9,5.9h-6.2
					c-0.1-1.8-1.4-3.5-3.2-4l-4.6-1.2V165c1.4-1.2,2.2-3,2.2-5v-2.2c0-4.4-4.2-7.6-8.6-6.4c-2.9,0.8-4.7,3.6-4.7,6.6v1.9
					c0,1.9,0.8,3.7,2.2,5v1.9l-4.6,1.2c-1.9,0.6-3.2,2.4-3.2,4.3v4.1h-11.1v34.9c0,2.4,2,4.4,4.4,4.4h4.5v9.3l-26.1,11.6
					 M194.2,195.9l0.8,23.3 M200.3,172.2l-7.9,7.9h-11.8 M157.3,189.7h34.4 M165,188.1v29.8 M183.8,188.1v29.8"/>
			</g>
			<line class="st4" x1="53.5" y1="143.1" x2="130.8" y2="118.8"/>
			<polyline class="st4" points="52.5,106.3 68,116.9 83.4,96.6 107.6,110.2 129.8,71.5 			"/>
			<line class="st4" x1="184.9" y1="129.8" x2="260.3" y2="155.7"/>
		</g>
	</g>
</g>
</svg>
