<?xml version="1.0" encoding="utf-8"?>
<!-- Generator: Adobe Illustrator 16.0.0, SVG Export Plug-In . SVG Version: 6.00 Build 0)  -->
<!DOCTYPE svg PUBLIC "-//W3C//DTD SVG 1.1//EN" "http://www.w3.org/Graphics/SVG/1.1/DTD/svg11.dtd">
<svg version="1.1" id="Layer_1" xmlns="http://www.w3.org/2000/svg" xmlns:xlink="http://www.w3.org/1999/xlink" x="0px" y="0px"
	 width="250px" height="250px" viewBox="0 0 250 250" enable-background="new 0 0 250 250" xml:space="preserve">
<g>
	<path fill="none" stroke="#000000" stroke-width="4" stroke-miterlimit="10" d="M65.299,127.212H31.933
		c-1.976,0-3.58,1.602-3.58,3.579v75.182h-7.158c-1.978,0-3.581,1.604-3.581,3.579v7.161c0,9.886,8.015,17.898,17.9,17.898h93.082
		c9.886,0,17.902-8.013,17.902-17.898v-7.161c0-1.976-1.605-3.579-3.583-3.579h-7.157v-43.374"/>
	<path fill="none" stroke="#000000" stroke-width="4" stroke-miterlimit="10" d="M193.035,66.35c0,1.979,1.604,3.58,3.581,3.58
		c1.978,0,3.579-1.602,3.579-3.58V55.61h3.58c1.978,0,3.581-1.604,3.581-3.58s-1.604-3.58-3.581-3.58h-3.58v-3.581
		c0-1.977,1.602-3.578,3.58-3.578h7.161c1.975,0,3.581-1.604,3.581-3.58s-1.606-3.58-3.581-3.58h-7.161
		c-5.932,0-10.74,4.809-10.74,10.739v3.58h-3.579c-1.979,0-3.582,1.604-3.582,3.58s1.604,3.58,3.582,3.58h3.579v6.556"/>
	<path fill="none" stroke="#000000" stroke-width="4" stroke-miterlimit="10" d="M167.977,67.69v5.82
		c0,5.932,4.808,10.739,10.739,10.739h42.961c5.933,0,10.742-4.807,10.742-10.739V30.549c0-5.932-4.81-10.739-10.742-10.739h-42.961
		c-5.932,0-10.739,4.807-10.739,10.739v28.348"/>
	<path fill="none" stroke="#000000" stroke-width="4" stroke-miterlimit="10" d="M180.81,163.012
		c0,10.709,8.683,19.388,19.388,19.388c10.706,0,19.389-8.678,19.389-19.388 M209.89,163.012c0,5.354-4.34,9.693-9.694,9.693
		c-5.354,0-9.693-4.339-9.693-9.693c0-5.353,4.34-9.693,9.693-9.693C205.55,153.318,209.89,157.659,209.89,163.012z"/>
	<path fill="none" stroke="#000000" stroke-width="4" stroke-miterlimit="10" d="M232.417,163.012v-21.48
		c0-5.932-4.81-10.738-10.741-10.738h-42.961c-5.932,0-10.738,4.807-10.738,10.738v42.962c0,5.932,4.807,10.741,10.738,10.741
		h42.961c5.932,0,10.741-4.81,10.741-10.741v-11.765"/>
	<path fill="none" stroke="#000000" stroke-width="4" stroke-miterlimit="10" d="M101.566,34.524
		c-1.766-0.889-3.917-0.18-4.809,1.585c-0.25,0.498-0.381,1.047-0.382,1.602v21.48c-0.003,1.236,0.634,2.386,1.682,3.043
		c0.571,0.354,1.229,0.54,1.898,0.538c0.562-0.004,1.112-0.14,1.612-0.394l21.48-10.742c1.759-0.901,2.455-3.059,1.553-4.819
		c-0.342-0.667-0.886-1.213-1.553-1.553l-6.773-3.388l-5.402-2.701"/>
	<path fill="none" stroke="#000000" stroke-width="4" stroke-miterlimit="10" d="M107.115,80.67
		c17.795,0,32.222-14.424,32.222-32.22c0-17.795-14.427-32.219-32.222-32.219S74.893,30.655,74.893,48.45
		C74.893,66.246,89.32,80.67,107.115,80.67z"/>
	<path fill="none" stroke="#000000" stroke-width="4" stroke-miterlimit="10" d="M21.194,116.473h42.96
		c1.977,0,3.58-1.604,3.58-3.582V55.61c0-1.976-1.604-3.58-3.58-3.58h-42.96c-1.978,0-3.581,1.604-3.581,3.58v57.281
		C17.613,114.869,19.216,116.473,21.194,116.473z"/>
	<path fill="none" stroke="#000000" stroke-width="4" stroke-miterlimit="10" d="M44.563,88.199H33.348
		c-2.308,0-4.178-1.872-4.178-4.178c0-2.307,1.871-4.178,4.178-4.178h16.716c2.308,0,4.178,1.871,4.178,4.178
		c0,2.306-1.871,4.178-4.178,4.178"/>
	<path fill="none" stroke="#000000" stroke-width="4" stroke-miterlimit="10" d="M135.993,109.071l-6.86-12.29
		c-0.531-0.908-1.435-1.536-2.469-1.717c-1.042-0.198-2.119,0.077-2.937,0.751l-50.121,41.316l-15.252,8.805
		c-5.628,3.28-8.334,9.944-6.587,16.219l-3.58,2.039c-5.144,2.955-6.919,9.52-3.965,14.662c1.425,2.483,3.779,4.291,6.544,5.031
		c0.911,0.238,1.849,0.361,2.792,0.357c1.883-0.009,3.733-0.5,5.37-1.434l3.58-2.04c1.72,1.776,3.884,3.061,6.266,3.723
		c1.223,0.343,2.488,0.51,3.759,0.5c2.516,0.006,4.99-0.659,7.161-1.932l3.114-1.791l7.16,12.424
		c2.963,5.122,9.511,6.884,14.642,3.938c5.14-2.962,6.905-9.529,3.944-14.668c-0.001-0.003-0.003-0.007-0.006-0.011l-6.514-11.35
		l53.698-20.154c0.985-0.371,1.758-1.157,2.112-2.148c0.352-0.981,0.262-2.066-0.251-2.971l-17.827-30.933"/>
</g>
</svg>
