<?xml version="1.0" encoding="utf-8"?>
<!-- Generator: Adobe Illustrator 16.0.0, SVG Export Plug-In . SVG Version: 6.00 Build 0)  -->
<!DOCTYPE svg PUBLIC "-//W3C//DTD SVG 1.1//EN" "http://www.w3.org/Graphics/SVG/1.1/DTD/svg11.dtd">
<svg version="1.1" id="Layer_1" xmlns="http://www.w3.org/2000/svg" xmlns:xlink="http://www.w3.org/1999/xlink" x="0px" y="0px"
	 width="250px" height="250px" viewBox="0 0 250 250" enable-background="new 0 0 250 250" xml:space="preserve">
<g>
	<path fill="none" stroke="#000000" stroke-width="4" stroke-miterlimit="10" d="M127.329,232.317
		c14.828,0,64.447-0.038,80.287-0.114c6.931-0.034,12.525-5.508,13.012-12.73c0.179-2.671,0.161-5.301-0.056-7.817
		c-0.512-5.934-3.686-9.974-9.18-11.688c-3.927-1.227-4.972-3.584-5.332-6.746c-1.305-11.486-5.437-22.34-12.282-32.259
		c-0.444-0.646-0.894-1.287-1.342-1.931c-1.898-2.72-3.861-5.533-5.528-8.496c-5.027-8.947-7.538-19.196-7.459-30.46l0.01-1.474
		l1.461-0.203c16.628-2.302,19.969-7.865,19.868-15.511c-0.109-8.472-5.958-13.74-16.468-14.833l-2.197-0.229l0.779-2.069
		c6.987-18.484,5.361-28.937-5.797-37.278c-4.635-3.465-10.121-5.296-15.863-5.296c-5.605,0-10.947,1.754-15.447,5.071
		c-4.891,3.604-8.166,8.237-9.731,13.769c-2.308,8.145-0.97,16.01,3.975,23.377l1.601,2.387l-2.861,0.26
		c-10.833,0.98-16.87,6.26-17,14.87c-0.142,9.143,5.646,13.617,19.971,15.445l1.512,0.193l-0.022,1.524
		c-0.229,14.692-4.076,26.81-11.759,37.043c-8.848,11.785-13.84,24.116-15.259,37.699c-0.202,1.939-2.292,4.006-4.041,4.646
		c-6.987,2.56-10.153,6.889-10.264,14.035c-0.026,1.736-0.046,3.585,0.026,5.439c0.292,7.387,5.952,13.204,12.885,13.242"/>
	<path fill="none" stroke="#000000" stroke-width="4" stroke-miterlimit="10" d="M122.882,50.605
		c-4.526-6.917-10.879-11.738-19.419-14.741c-2.062-0.726-4.007-2.136-5.073-3.682c-6.142-8.905-15.123-13.505-28.262-14.477
		c-0.216-0.017-0.427-0.024-0.63-0.024c-1.847,0-3.979,0.551-4.074,4.842l-0.01,0.452c-0.078,3.594-0.159,7.311,0.016,10.922
		c0.167,3.42-1.423,5.426-3.208,7.345c-0.546,0.586-1.096,1.172-1.647,1.761c-4.38,4.671-8.908,9.502-11.902,14.938
		c-3.87,7.022-8.337,14.385-14.771,20.67c-5.874,5.74-6.227,14.645-0.821,20.715c2.845,3.195,6.686,4.953,10.817,4.953
		c3.433,0,6.883-1.191,9.977-3.442c1.571-1.146,3.669-1.936,5.754-2.168c5.192-0.578,10.277-1.017,15.661-1.482
		c1.943-0.168,3.897-0.337,5.866-0.514l2.509-0.225L82.94,98.86c-0.143,0.473-0.275,1.075-0.417,1.714
		c-0.385,1.745-0.864,3.915-2.008,5.784c-0.626,1.022-1.249,2.051-1.872,3.079c-3.611,5.96-7.345,12.125-11.895,17.538
		c-11.591,13.783-17.613,28.051-18.409,43.611c-0.064,1.253-0.713,3.407-2.238,4.211c-7.448,3.923-8.208,10.788-7.92,17.622
		c0.363,8.591,5.95,14.198,14.233,14.285c4.357,0.045,9.086,0.069,14.458,0.069c5.306,0,10.612-0.022,15.918-0.044l1.964-0.008"/>
</g>
</svg>
