<?xml version="1.0" encoding="utf-8"?>
<!-- Generator: Adobe Illustrator 16.0.0, SVG Export Plug-In . SVG Version: 6.00 Build 0)  -->
<!DOCTYPE svg PUBLIC "-//W3C//DTD SVG 1.1//EN" "http://www.w3.org/Graphics/SVG/1.1/DTD/svg11.dtd">
<svg version="1.1" id="Layer_1" xmlns="http://www.w3.org/2000/svg" xmlns:xlink="http://www.w3.org/1999/xlink" x="0px" y="0px"
	 width="250px" height="250px" viewBox="0 0 250 250" enable-background="new 0 0 250 250" xml:space="preserve">
<g>
	<g>
		<path fill="none" stroke="#000000" stroke-width="4" stroke-miterlimit="10" d="M91.443,76.509
			c-0.082,3.608,0.067,7.245,0.477,10.892l2.7,24.136l-30.32,39.088c-1.317,1.698-1.549,3.953-0.603,5.884
			c0.945,1.93,2.868,3.13,5.019,3.13h19.64v2.485c-8.974,0.694-17.451,4.161-24.344,9.982c-5.59-2.563-11.738-3.91-17.922-3.91
			c-5.13,0-10.237,0.931-15.021,2.711 M24.362,114.988v81.965H18.72c-4.313,0-7.823,3.51-7.823,7.823v12.343
			c0,8.013,6.519,14.53,14.53,14.53H225.27c8.012,0,14.529-6.518,14.529-14.53v-12.343c0-4.313-3.51-7.823-7.822-7.823h-5.641
			V79.861c0-5.546-4.514-10.059-10.061-10.059h-57.447c-2.189-20.554-12.223-35.199-28.459-48.783c-2.91-2.433-7.132-2.434-10.041,0
			c-16.237,13.586-26.271,28.229-28.46,48.783H34.42c-5.547,0-10.059,4.513-10.059,10.059v20.515 M167.029,125.654l-10.951-14.119
			l2.701-24.135c0.406-3.646,0.557-7.283,0.475-10.892 M219.629,170.906c-4.785-1.78-9.893-2.711-15.021-2.711
			c-6.184,0-12.332,1.347-17.924,3.91c-6.891-5.821-15.369-9.288-24.342-9.983v-2.485h19.641c2.148,0,4.072-1.199,5.018-3.129
			c0.945-1.931,0.715-4.186-0.604-5.885l-10.508-13.547 M125.348,178.238c-2.848-3.577-6.264-6.702-10.081-9.214v-1.426h20.163
			v1.426C131.611,171.536,128.197,174.661,125.348,178.238L125.348,178.238z"/>
		<path fill="none" stroke="#000000" stroke-width="4" stroke-miterlimit="10" d="M125.348,86.645
			c9.853,0,17.871-8.016,17.871-17.869s-8.018-17.871-17.871-17.871c-9.854,0-17.87,8.018-17.87,17.871
			S115.495,86.645,125.348,86.645z"/>
	</g>
	<line fill="none" stroke="#000000" stroke-width="4" stroke-miterlimit="10" x1="32.58" y1="196.507" x2="218.117" y2="196.507"/>
</g>
</svg>
